<svg width="1800" height="1665" viewBox="0 0 1800 1665" fill="none" xmlns="http://www.w3.org/2000/svg">
<g clip-path="url(#clip0_2106_19)">
<path d="M1582.83 528.583C1482.18 355.25 1230.54 355.25 1129.88 528.583L980.375 786.037H1279.98C1457.8 786.037 1592.08 910.984 1625.99 1062.99L1662.77 999.648C1722.67 896.49 1722.67 769.392 1662.77 666.229L1582.83 528.583Z" fill="#BB6BD9"/>
<path d="M291.132 401.191C284.058 413.842 278.176 426.71 273.428 439.697C278.19 426.674 284.091 413.773 291.191 401.089L291.132 401.191Z" fill="#F2C94C"/>
<path d="M626.949 92.8863L736.457 92.8674C622.359 198.266 581.544 375.313 669.996 527.634L820.058 786.042H819.927V787.059H719.208L593.924 571.311C499.766 409.167 523.292 224.874 619.587 92.9871C622.035 92.9205 624.488 92.8872 626.949 92.8863Z" fill="black"/>
<path d="M174.003 602.896C191.099 678.721 233.18 747.765 293.174 797.85C350.117 845.388 423.199 875.848 506.376 878.823C510.835 878.985 515.322 879.066 519.835 879.066H819.333L768.613 966.406H519.835C332.438 966.406 184.21 855.099 117.004 707.314C122.745 693.288 129.485 679.558 137.226 666.229L174.003 602.896Z" fill="black"/>
<path d="M336.291 1342.79C479.344 1387.39 646.686 1340.36 738.535 1201.72L738.562 1201.68C742.531 1195.68 746.361 1189.52 750.037 1183.18L899.991 924.957C913.608 948.411 927.211 971.874 940.815 995.337C944.104 1001.01 947.394 1006.68 950.679 1012.35L826.114 1226.86C731.646 1389.54 558.531 1461.37 395.011 1443.75C393.873 1441.89 392.756 1440.02 391.66 1438.14L336.291 1342.79Z" fill="black"/>
<path d="M1180.42 1571.96C1177.92 1572.03 1175.4 1572.07 1172.89 1572.07L1063.56 1572.08C1177.59 1466.68 1218.37 1289.68 1129.94 1137.39L979.191 877.806L1080.63 877.802L1206.02 1093.73C1300.15 1255.84 1276.65 1440.09 1180.42 1571.96Z" fill="black"/>
<path d="M1063.57 1572.08C1177.6 1466.68 1218.37 1289.68 1129.94 1137.4L979.191 877.802L1279.97 877.806C1481.28 877.806 1607.1 1094.47 1506.45 1267.81L1408.22 1436.97C1359.68 1520.56 1269.97 1572.06 1172.89 1572.07L1063.57 1572.08Z" fill="#EB5757"/>
<path d="M336.291 1342.79C485.541 1389.33 661.225 1336.12 750.033 1183.19L899.991 924.957L1050 1183.28C1150.68 1356.65 1024.8 1573.34 823.459 1573.29L626.949 1573.24C529.879 1573.21 440.193 1521.72 391.661 1438.14L336.291 1342.79Z" fill="#F2994A"/>
<path d="M173.996 602.896L137.214 666.238C77.3089 769.396 77.3089 896.495 137.214 999.652L217.147 1137.3C317.803 1310.64 569.443 1310.64 670.099 1137.3L820.062 879.061H519.826C342.315 879.061 208.188 754.546 173.996 602.896Z" fill="#F2C94C"/>
<path d="M736.465 92.8674C622.359 198.265 581.544 375.318 670 527.639L820.786 787.307H519.817C318.505 787.307 192.685 570.641 293.341 397.303L391.658 227.997C440.189 144.419 529.875 92.9223 626.944 92.8967L736.465 92.8674Z" fill="#27AE60"/>
<path d="M900.211 740.552L749.934 481.761C649.269 308.414 775.116 91.7308 976.446 91.7578L1172.9 91.7839C1269.98 91.7965 1359.68 143.295 1408.22 226.884L1464.19 323.268C1314.83 276.458 1138.86 329.606 1049.94 482.711L900.211 740.552Z" fill="#2F80ED"/>
<path fill-rule="evenodd" clip-rule="evenodd" d="M1172.92 0.000388741C1302.98 0.0176238 1423.14 69.0057 1488.16 180.983C1573.16 327.353 1657.71 473.976 1742.71 620.347C1819.1 751.896 1819.1 913.977 1742.71 1045.53C1658.01 1191.39 1572.86 1336.99 1488.16 1482.85C1423.13 1594.83 1302.97 1663.82 1172.92 1663.83C990.887 1663.86 808.956 1665.04 626.935 1665C496.899 1664.96 376.756 1595.97 311.739 1484.01C226.877 1337.88 142.155 1191.66 57.2944 1045.52C-19.0982 913.972 -19.0981 751.891 57.2944 620.339C142.121 474.264 226.917 328.176 311.743 182.101C376.76 70.1379 496.903 1.15216 626.94 1.11778C808.965 1.0866 990.905 -0.0237762 1172.92 0.000388741ZM736.47 92.8651L626.962 92.884C540.324 92.907 459.571 133.933 408.707 202.178C402.581 210.396 396.889 219.009 391.672 227.992L293.356 397.298C292.628 398.551 291.912 399.807 291.208 401.065C196.449 570.384 315.2 778.999 508.261 787.05H819.94V786.033H820.071L670.014 527.625C581.562 375.311 622.372 198.264 736.47 92.8651ZM900 924.948C941.265 996.007 982.372 1067.15 1023.79 1138.12L1050.02 1183.28C1150.69 1356.64 1024.81 1573.34 823.468 1573.28L626.958 1573.23C529.893 1573.2 440.208 1521.71 391.672 1438.13L336.297 1342.77C479.353 1387.38 646.695 1340.36 738.544 1201.71L738.572 1201.67C742.541 1195.67 746.37 1189.51 750.051 1183.17L900 924.948ZM819.333 879.057L706.842 1072.78C694.413 1094.17 682.546 1115.88 670.117 1137.29C569.461 1310.63 317.817 1310.63 217.161 1137.29L137.227 999.639C77.3226 896.481 77.3226 769.383 137.227 666.225L174.006 602.888C191.101 678.713 233.181 747.756 293.176 797.841C350.119 845.379 423.201 875.84 506.38 878.819C510.835 878.976 515.322 879.057 519.84 879.057H819.333ZM979.204 877.802H1279.98C1481.3 877.802 1607.12 1094.47 1506.46 1267.81L1408.23 1436.97C1359.69 1520.55 1269.99 1572.05 1172.91 1572.07L1063.57 1572.08C1177.61 1466.68 1218.38 1289.68 1129.95 1137.39L979.204 877.802ZM900.225 740.542L749.943 481.752C649.282 308.406 775.129 91.723 976.455 91.75L1172.91 91.7761C1269.99 91.7887 1359.69 143.287 1408.23 226.876L1464.2 323.261C1314.85 276.45 1138.86 329.598 1049.96 482.702L900.225 740.542ZM1129.89 528.583C1230.54 355.253 1482.19 355.253 1582.84 528.583L1662.78 666.234C1722.68 769.392 1722.68 896.49 1662.78 999.653L1625.99 1062.99C1592.09 910.989 1457.8 786.042 1279.98 786.042H980.384L1129.89 528.583Z" fill="white"/>
</g>
<defs>
<clipPath id="clip0_2106_19">
<rect width="1800" height="1665" fill="white"/>
</clipPath>
</defs>
</svg>
